<svg width="400" height="237" viewBox="0 0 400 237" fill="none" xmlns="http://www.w3.org/2000/svg">
<path d="M6.35 50.58C6.31 53.83 6.96 56.52 8.3 58.67C9.64 60.82 11.59 62.39 14.14 63.41C16.69 64.42 19.76 64.84 23.34 64.67C25.17 64.59 26.75 64.39 28.07 64.08C29.39 63.77 30.42 63.51 31.15 63.3L28.84 52.27C28.51 52.36 28.01 52.45 27.35 52.57C26.7 52.68 26.08 52.74 25.49 52.74C24.68 52.74 23.98 52.62 23.4 52.38C22.82 52.14 22.38 51.74 22.07 51.16C21.77 50.59 21.62 49.84 21.62 48.9V27.25H30.27V16H21.62V4.5H6.34V16H0V27.25H6.34V50.58H6.35Z" fill="#2DA44E"/>
<path d="M54.36 36.62C54.38 34.79 54.73 33.23 55.41 31.93C56.09 30.63 57.03 29.64 58.25 28.95C59.47 28.26 60.88 27.9 62.48 27.9C64.94 27.9 66.84 28.65 68.2 30.15C69.55 31.65 70.22 33.73 70.2 36.4V63.98H85.48V33.4C85.5 29.78 84.82 26.61 83.43 23.9C82.04 21.19 80.1 19.09 77.6 17.6C75.1 16.11 72.17 15.37 68.79 15.37C65.21 15.37 62.19 16.2 59.72 17.87C57.25 19.53 55.48 21.85 54.39 24.8H53.86V0H39.09V63.97H54.36V36.61V36.62Z" fill="#2DA44E"/>
<path d="M128.45 62.96C131.64 61.68 134.22 59.88 136.18 57.56C138.15 55.24 139.42 52.5 140.01 49.36L125.99 48.95C125.59 50.01 125 50.91 124.21 51.64C123.42 52.37 122.47 52.92 121.37 53.29C120.27 53.67 119.04 53.85 117.68 53.85C115.72 53.85 114.04 53.45 112.62 52.63C111.2 51.82 110.11 50.68 109.34 49.21C108.57 47.74 108.18 46.03 108.18 44.07V43.66H140.17V39.85C140.17 35.91 139.6 32.42 138.45 29.37C137.3 26.32 135.7 23.75 133.64 21.67C131.58 19.59 129.13 18.02 126.3 16.95C123.47 15.89 120.34 15.36 116.93 15.36C112.1 15.36 107.9 16.4 104.34 18.47C100.78 20.54 98.02 23.43 96.06 27.15C94.1 30.87 93.13 35.2 93.13 40.16C93.13 45.12 94.1 49.66 96.05 53.36C98 57.06 100.79 59.9 104.42 61.89C108.05 63.88 112.38 64.87 117.4 64.87C121.58 64.87 125.27 64.23 128.46 62.95L128.45 62.96ZM112.64 27.54C113.99 26.78 115.52 26.4 117.23 26.4C118.94 26.4 120.41 26.76 121.71 27.48C123.01 28.2 124.04 29.19 124.78 30.46C125.53 31.73 125.91 33.18 125.94 34.8H108.2C108.28 33.26 108.66 31.86 109.41 30.63C110.2 29.33 111.27 28.3 112.63 27.54H112.64Z" fill="#2DA44E"/>
<path d="M41.7099 98.83C39.2099 97.34 36.28 96.6 32.9 96.6C29.32 96.6 26.3 97.43 23.83 99.1C21.36 100.76 19.59 103.08 18.5 106.03H17.97V81.23H3.19995V145.2H18.47V117.84C18.49 116.01 18.84 114.45 19.52 113.15C20.2 111.85 21.14 110.86 22.36 110.17C23.58 109.48 24.99 109.12 26.59 109.12C29.05 109.12 30.95 109.87 32.31 111.37C33.66 112.87 34.33 114.95 34.31 117.62V145.2H49.59V114.62C49.61 111 48.93 107.83 47.54 105.12C46.15 102.41 44.2099 100.31 41.7099 98.82V98.83Z" fill="#2DA44E"/>
<path d="M101.27 145.2V112.59C101.27 110.05 100.74 107.79 99.7 105.81C98.65 103.83 97.16 102.16 95.25 100.8C93.34 99.44 91.08 98.39 88.5 97.68C85.92 96.96 83.1 96.6 80.04 96.6C75.75 96.6 72.08 97.26 69.03 98.59C65.98 99.91 63.59 101.72 61.85 104.02C60.11 106.32 59.03 108.93 58.62 111.84L72.71 112.34C73.04 110.8 73.82 109.59 75.05 108.72C76.28 107.84 77.9 107.41 79.92 107.41C81.79 107.41 83.28 107.85 84.39 108.72C85.49 109.59 86.04 110.83 86.04 112.44V112.6C86.04 113.58 85.66 114.33 84.9 114.86C84.14 115.39 82.92 115.8 81.26 116.08C79.6 116.36 77.4 116.63 74.67 116.87C72.23 117.08 69.94 117.48 67.8 118.07C65.65 118.66 63.76 119.53 62.11 120.68C60.47 121.83 59.18 123.31 58.24 125.15C57.3 126.99 56.83 129.23 56.83 131.9C56.83 135.07 57.51 137.69 58.88 139.79C60.25 141.89 62.11 143.44 64.47 144.48C66.83 145.52 69.55 146.03 72.61 146.03C74.84 146.03 76.84 145.75 78.62 145.19C80.4 144.63 81.95 143.79 83.27 142.66C84.59 141.54 85.68 140.16 86.53 138.54H86.91V145.23H101.28L101.27 145.2ZM86.13 128.15C86.13 129.71 85.7299 131.08 84.9399 132.26C84.1499 133.43 83.09 134.36 81.77 135.02C80.45 135.68 78.96 136.02 77.32 136.02C75.57 136.02 74.13 135.6 73 134.77C71.87 133.94 71.3 132.73 71.3 131.15C71.3 130.11 71.56 129.21 72.1 128.45C72.63 127.69 73.4 127.07 74.41 126.59C75.42 126.11 76.64 125.76 78.08 125.53C78.79 125.43 79.5299 125.31 80.2999 125.19C81.0699 125.06 81.8199 124.92 82.5499 124.75C83.2799 124.58 83.95 124.41 84.57 124.22C85.18 124.03 85.71 123.83 86.15 123.6V128.16L86.13 128.15Z" fill="#2DA44E"/>
<path d="M133.28 97.9001C131.48 98.7601 130 99.8701 128.85 101.23C127.7 102.59 126.8 103.99 126.18 105.45H125.87V81.2401H110.6V145.21H125.72V137.43H126.19C126.83 138.91 127.75 140.29 128.95 141.59C130.15 142.88 131.63 143.92 133.4 144.71C135.17 145.5 137.26 145.9 139.68 145.9C143.22 145.9 146.44 144.98 149.35 143.15C152.26 141.32 154.56 138.57 156.28 134.9C158 131.23 158.86 126.69 158.86 121.25C158.86 115.81 157.97 110.96 156.18 107.32C154.39 103.68 152.04 100.98 149.14 99.2301C146.23 97.4801 143.12 96.6101 139.78 96.6101C137.26 96.6101 135.1 97.04 133.3 97.91L133.28 97.9001ZM143.16 121.21C143.16 123.79 142.82 126.04 142.15 127.96C141.47 129.87 140.48 131.36 139.17 132.41C137.86 133.46 136.27 133.99 134.39 133.99C132.51 133.99 130.95 133.46 129.63 132.41C128.31 131.36 127.3 129.88 126.6 127.96C125.9 126.04 125.55 123.79 125.55 121.21C125.55 118.63 125.9 116.33 126.6 114.43C127.3 112.53 128.3 111.08 129.62 110.06C130.93 109.04 132.52 108.53 134.4 108.53C136.28 108.53 137.89 109.05 139.2 110.09C140.5 111.13 141.49 112.6 142.17 114.49C142.85 116.39 143.18 118.62 143.18 121.2L143.16 121.21Z" fill="#2DA44E"/>
<path d="M174.52 77.04C172.38 77.04 170.53 77.75 168.99 79.18C167.45 80.61 166.68 82.32 166.68 84.32C166.68 86.32 167.45 88.06 168.99 89.49C170.53 90.92 172.38 91.63 174.52 91.63C176.66 91.63 178.53 90.92 180.06 89.49C181.59 88.06 182.35 86.34 182.35 84.32C182.35 82.3 181.59 80.61 180.06 79.18C178.53 77.75 176.68 77.04 174.52 77.04Z" fill="#2DA44E"/>
<path d="M182.14 97.22H166.87V145.2H182.14V97.22Z" fill="#2DA44E"/>
<path d="M194.98 131.8C194.94 135.05 195.59 137.74 196.93 139.89C198.27 142.04 200.22 143.61 202.77 144.63C205.32 145.64 208.39 146.06 211.97 145.89C213.8 145.81 215.38 145.61 216.7 145.3C218.02 144.99 219.05 144.73 219.78 144.52L217.47 133.49C217.14 133.58 216.64 133.67 215.98 133.79C215.33 133.9 214.71 133.96 214.12 133.96C213.31 133.96 212.61 133.84 212.03 133.6C211.45 133.36 211.01 132.96 210.7 132.38C210.4 131.81 210.25 131.06 210.25 130.12V108.47H218.9V97.22H210.25V85.72H194.97V97.22H188.63V108.47H194.97V131.8H194.98Z" fill="#2DA44E"/>
<path d="M251.83 134.43C250.6 135.16 249.01 135.53 247.05 135.53C244.88 135.53 243.11 135.07 241.71 134.16C240.31 133.25 239.45 131.91 239.12 130.16L224.03 130.54C224.59 135.29 226.85 139.07 230.79 141.9C234.73 144.72 240.14 146.13 246.99 146.13C251.28 146.13 255.09 145.46 258.42 144.11C261.75 142.76 264.38 140.88 266.31 138.44C268.24 136 269.21 133.14 269.23 129.85C269.21 126.35 268.03 123.54 265.68 121.42C263.34 119.29 259.77 117.78 254.98 116.86L245.74 115.11C243.72 114.69 242.32 114.14 241.54 113.45C240.76 112.76 240.38 111.95 240.4 111.02C240.38 109.81 240.99 108.85 242.23 108.15C243.47 107.45 244.97 107.09 246.74 107.09C248.09 107.09 249.28 107.32 250.32 107.76C251.36 108.2 252.19 108.82 252.84 109.6C253.48 110.38 253.88 111.27 254.02 112.27L268.05 111.89C267.65 107.14 265.58 103.41 261.83 100.69C258.08 97.97 252.96 96.61 246.46 96.61C242.13 96.61 238.37 97.21 235.19 98.42C232 99.63 229.55 101.37 227.82 103.65C226.09 105.93 225.24 108.68 225.26 111.88C225.24 115.55 226.41 118.56 228.76 120.92C231.11 123.28 234.69 124.9 239.5 125.78L247.87 127.37C249.87 127.74 251.34 128.26 252.28 128.92C253.22 129.57 253.69 130.44 253.72 131.53C253.7 132.74 253.08 133.71 251.85 134.44L251.83 134.43Z" fill="#2DA44E"/>
<path d="M21.12 183.07C22.45 182.08 24 181.59 25.78 181.59C27.96 181.59 29.74 182.29 31.11 183.68C32.47 185.08 33.3 187 33.59 189.46H47.87C47.77 185.53 46.78 182.09 44.92 179.17C43.06 176.24 40.47 173.98 37.17 172.37C33.87 170.77 30 169.96 25.56 169.96C20.54 169.96 16.23 171 12.61 173.08C8.99997 175.16 6.21997 178.06 4.26997 181.78C2.31997 185.5 1.34998 189.81 1.34998 194.73C1.34998 199.65 2.31998 203.93 4.24998 207.65C6.18998 211.37 8.95998 214.27 12.58 216.35C16.19 218.43 20.53 219.47 25.59 219.47C30.09 219.47 33.98 218.65 37.26 217.02C40.54 215.38 43.09 213.09 44.91 210.13C46.73 207.17 47.72 203.72 47.86 199.76H33.58C33.39 201.45 32.95 202.88 32.24 204.05C31.53 205.23 30.63 206.12 29.54 206.72C28.45 207.32 27.19 207.63 25.78 207.63C24.01 207.63 22.45 207.14 21.12 206.15C19.79 205.16 18.75 203.69 18.01 201.74C17.27 199.79 16.9 197.41 16.9 194.57C16.9 191.73 17.27 189.36 18.01 187.43C18.75 185.5 19.79 184.05 21.12 183.06V183.07Z" fill="#2DA44E"/>
<path d="M91.07 173.08C87.46 171.01 83.13 169.97 78.09 169.97C73.05 169.97 68.72 171.01 65.11 173.08C61.5 175.15 58.72 178.04 56.77 181.76C54.82 185.48 53.85 189.8 53.85 194.74C53.85 199.68 54.82 203.97 56.77 207.69C58.72 211.41 61.49 214.3 65.11 216.37C68.72 218.44 73.05 219.48 78.09 219.48C83.13 219.48 87.46 218.45 91.07 216.37C94.68 214.3 97.46 211.4 99.41 207.69C101.35 203.97 102.33 199.65 102.33 194.74C102.33 189.83 101.35 185.48 99.41 181.76C97.46 178.04 94.68 175.15 91.07 173.08ZM85.77 201.58C85.09 203.58 84.12 205.14 82.85 206.27C81.58 207.4 80.03 207.96 78.19 207.96C76.35 207.96 74.7 207.4 73.4 206.27C72.1 205.15 71.11 203.59 70.43 201.58C69.75 199.58 69.41 197.27 69.41 194.65C69.41 192.03 69.75 189.65 70.43 187.65C71.11 185.65 72.09 184.09 73.4 182.96C74.7 181.84 76.3 181.27 78.19 181.27C80.08 181.27 81.58 181.83 82.85 182.96C84.12 184.09 85.09 185.64 85.77 187.65C86.45 189.66 86.78 191.98 86.78 194.65C86.78 197.32 86.44 199.59 85.77 201.58Z" fill="#2DA44E"/>
<path d="M166.84 169.97C163.3 169.97 160.23 170.83 157.62 172.55C155.02 174.27 153.27 176.56 152.37 179.41H151.87C151.22 176.54 149.71 174.25 147.34 172.54C144.97 170.83 142.11 169.98 138.78 169.98C135.45 169.98 132.66 170.82 130.28 172.51C127.91 174.2 126.22 176.5 125.22 179.41H124.69V170.6H110.17V218.58H125.44V190.19C125.44 188.61 125.73 187.23 126.3 186.07C126.87 184.91 127.67 184 128.69 183.37C129.71 182.74 130.89 182.42 132.22 182.42C134.2 182.42 135.79 183.06 137 184.36C138.21 185.65 138.81 187.41 138.81 189.64V218.6H153.49V189.96C153.49 187.67 154.09 185.84 155.29 184.48C156.49 183.12 158.14 182.44 160.24 182.44C162.19 182.44 163.79 183.07 165.02 184.33C166.25 185.59 166.86 187.42 166.86 189.81V218.61H182.13V186.31C182.13 181.25 180.72 177.27 177.88 174.36C175.05 171.45 171.36 170 166.82 170L166.84 169.97Z" fill="#2DA44E"/>
<path d="M230.17 172.59C227.26 170.84 224.15 169.97 220.81 169.97C218.29 169.97 216.13 170.4 214.33 171.27C212.53 172.13 211.05 173.24 209.9 174.6C208.75 175.96 207.85 177.36 207.23 178.82H206.76V170.61H191.64V236.58H206.91V210.81H207.22C207.86 212.29 208.78 213.67 209.98 214.97C211.18 216.26 212.66 217.3 214.43 218.09C216.2 218.88 218.29 219.28 220.71 219.28C224.25 219.28 227.47 218.36 230.38 216.53C233.29 214.7 235.59 211.95 237.31 208.28C239.03 204.61 239.89 200.07 239.89 194.63C239.89 189.19 239 184.34 237.21 180.7C235.42 177.06 233.07 174.36 230.17 172.61V172.59ZM223.2 201.33C222.52 203.24 221.53 204.73 220.22 205.78C218.91 206.83 217.32 207.36 215.44 207.36C213.56 207.36 212 206.83 210.68 205.78C209.36 204.73 208.35 203.25 207.65 201.33C206.95 199.41 206.6 197.16 206.6 194.58C206.6 192 206.95 189.7 207.65 187.8C208.35 185.9 209.35 184.45 210.67 183.43C211.98 182.41 213.57 181.9 215.45 181.9C217.33 181.9 218.94 182.42 220.25 183.46C221.55 184.5 222.54 185.97 223.22 187.86C223.9 189.76 224.23 191.99 224.23 194.57C224.23 197.15 223.89 199.4 223.22 201.32L223.2 201.33Z" fill="#2DA44E"/>
<path d="M284.1 174.17C282.19 172.81 279.93 171.76 277.35 171.05C274.77 170.33 271.95 169.97 268.89 169.97C264.6 169.97 260.93 170.63 257.88 171.96C254.83 173.28 252.44 175.09 250.7 177.39C248.96 179.69 247.88 182.3 247.47 185.21L261.56 185.71C261.89 184.17 262.67 182.96 263.9 182.09C265.13 181.21 266.75 180.78 268.77 180.78C270.64 180.78 272.13 181.22 273.24 182.09C274.34 182.96 274.89 184.2 274.89 185.81V185.97C274.89 186.95 274.51 187.7 273.75 188.23C272.99 188.76 271.77 189.17 270.11 189.45C268.45 189.73 266.25 190 263.52 190.24C261.08 190.45 258.79 190.85 256.65 191.44C254.5 192.03 252.61 192.9 250.96 194.05C249.32 195.2 248.03 196.68 247.09 198.52C246.15 200.36 245.68 202.6 245.68 205.27C245.68 208.44 246.36 211.06 247.73 213.16C249.1 215.26 250.96 216.81 253.32 217.85C255.68 218.89 258.4 219.4 261.46 219.4C263.69 219.4 265.69 219.12 267.47 218.56C269.25 218 270.8 217.16 272.12 216.03C273.44 214.91 274.53 213.53 275.38 211.91H275.76V218.6H290.13V185.99C290.13 183.45 289.6 181.19 288.56 179.21C287.51 177.23 286.02 175.56 284.11 174.2L284.1 174.17ZM274.98 201.52C274.98 203.08 274.58 204.45 273.79 205.63C273 206.8 271.94 207.73 270.62 208.39C269.3 209.05 267.81 209.39 266.17 209.39C264.42 209.39 262.98 208.97 261.85 208.14C260.72 207.31 260.15 206.1 260.15 204.52C260.15 203.48 260.41 202.58 260.95 201.82C261.48 201.06 262.25 200.44 263.26 199.96C264.27 199.48 265.49 199.13 266.93 198.9C267.64 198.8 268.38 198.68 269.15 198.56C269.92 198.43 270.67 198.29 271.4 198.12C272.13 197.95 272.8 197.78 273.42 197.59C274.03 197.4 274.56 197.2 275 196.97V201.53L274.98 201.52Z" fill="#2DA44E"/>
<path d="M337.87 172.23C335.38 170.72 332.45 169.96 329.08 169.96C325.54 169.96 322.49 170.8 319.93 172.48C317.37 174.16 315.56 176.46 314.49 179.4H313.96V170.59H299.44V218.57H314.71V191.21C314.73 189.38 315.07 187.82 315.73 186.52C316.39 185.22 317.32 184.23 318.54 183.54C319.76 182.85 321.17 182.49 322.77 182.49C325.19 182.49 327.08 183.24 328.44 184.74C329.8 186.24 330.48 188.32 330.46 190.99V218.57H345.74V187.99C345.76 184.39 345.08 181.24 343.69 178.54C342.3 175.84 340.37 173.74 337.88 172.23H337.87Z" fill="#2DA44E"/>
<path d="M383.93 170.59L374.96 204.82H374.46L365.62 170.59H349.62L366.67 220.32L366.08 221.76C365.6 222.95 364.92 223.78 364.03 224.24C363.15 224.71 362.09 224.9 360.87 224.82C359.65 224.74 358.29 224.45 356.8 223.95L353.42 235.04C354.59 235.5 355.98 235.87 357.6 236.15C359.22 236.43 360.95 236.57 362.79 236.57C366.46 236.57 369.54 236 372.05 234.85C374.56 233.7 376.61 232.13 378.2 230.12C379.79 228.11 381.03 225.79 381.9 223.17L399.99 170.6H383.91L383.93 170.59Z" fill="#2DA44E"/>
</svg>
