<svg width="400" height="237" viewBox="0 0 400 237" fill="none" xmlns="http://www.w3.org/2000/svg">
<path d="M6.34 50.57C6.3 53.82 6.95 56.51 8.29 58.66C9.63 60.81 11.58 62.38 14.13 63.4C16.68 64.41 19.75 64.83 23.33 64.66C25.16 64.58 26.74 64.38 28.06 64.07C29.38 63.76 30.41 63.5 31.14 63.29L28.83 52.26C28.5 52.35 28 52.44 27.34 52.56C26.69 52.67 26.07 52.73 25.48 52.73C24.67 52.73 23.97 52.61 23.39 52.37C22.81 52.13 22.37 51.73 22.06 51.15C21.76 50.58 21.61 49.83 21.61 48.89V27.24H30.26V15.99H21.61V4.48999H6.33V15.99H-0.00999832V27.24H6.33V50.57H6.34Z" fill="#121826"/>
<path d="M54.35 36.61C54.37 34.78 54.72 33.22 55.4 31.92C56.08 30.62 57.02 29.63 58.24 28.94C59.46 28.25 60.87 27.89 62.47 27.89C64.93 27.89 66.83 28.64 68.19 30.14C69.54 31.64 70.21 33.72 70.19 36.39V63.97H85.47V33.39C85.49 29.77 84.81 26.6 83.42 23.89C82.03 21.18 80.09 19.08 77.59 17.59C75.09 16.1 72.16 15.36 68.78 15.36C65.2 15.36 62.18 16.19 59.71 17.86C57.24 19.52 55.47 21.84 54.38 24.79H53.85V-0.0100098H39.08V63.96H54.35V36.6V36.61Z" fill="#121826"/>
<path d="M128.44 62.95C131.63 61.67 134.21 59.87 136.17 57.55C138.14 55.23 139.41 52.49 140 49.35L125.98 48.94C125.58 50 124.99 50.9 124.2 51.63C123.41 52.36 122.46 52.91 121.36 53.28C120.26 53.66 119.03 53.84 117.67 53.84C115.71 53.84 114.03 53.44 112.61 52.62C111.19 51.81 110.1 50.67 109.33 49.2C108.56 47.73 108.17 46.02 108.17 44.06V43.65H140.16V39.84C140.16 35.9 139.59 32.41 138.44 29.36C137.29 26.31 135.69 23.74 133.63 21.66C131.57 19.58 129.12 18.01 126.29 16.94C123.46 15.88 120.33 15.35 116.92 15.35C112.09 15.35 107.89 16.39 104.33 18.46C100.77 20.53 98.01 23.42 96.05 27.14C94.09 30.86 93.12 35.19 93.12 40.15C93.12 45.11 94.09 49.65 96.04 53.35C97.99 57.05 100.78 59.89 104.41 61.88C108.04 63.87 112.37 64.86 117.39 64.86C121.57 64.86 125.26 64.22 128.45 62.94L128.44 62.95ZM112.63 27.53C113.98 26.77 115.51 26.39 117.22 26.39C118.93 26.39 120.4 26.75 121.7 27.47C123 28.19 124.03 29.18 124.77 30.45C125.52 31.72 125.9 33.17 125.93 34.79H108.19C108.27 33.25 108.65 31.85 109.4 30.62C110.19 29.32 111.26 28.29 112.62 27.53H112.63Z" fill="#121826"/>
<path d="M41.7 98.82C39.2 97.33 36.27 96.59 32.89 96.59C29.31 96.59 26.29 97.42 23.82 99.09C21.35 100.75 19.58 103.07 18.49 106.02H17.96V81.22H3.19V145.19H18.46V117.83C18.48 116 18.83 114.44 19.51 113.14C20.19 111.84 21.13 110.85 22.35 110.16C23.57 109.47 24.98 109.11 26.58 109.11C29.04 109.11 30.94 109.86 32.3 111.36C33.65 112.86 34.32 114.94 34.3 117.61V145.19H49.58V114.61C49.6 110.99 48.92 107.82 47.53 105.11C46.14 102.4 44.2 100.3 41.7 98.81V98.82Z" fill="#121826"/>
<path d="M101.26 145.19V112.58C101.26 110.04 100.73 107.78 99.69 105.8C98.64 103.82 97.15 102.15 95.24 100.79C93.33 99.43 91.07 98.38 88.49 97.67C85.91 96.95 83.09 96.59 80.03 96.59C75.74 96.59 72.07 97.25 69.02 98.58C65.97 99.9 63.58 101.71 61.84 104.01C60.1 106.31 59.02 108.92 58.61 111.83L72.7 112.33C73.03 110.79 73.81 109.58 75.04 108.71C76.27 107.83 77.89 107.4 79.91 107.4C81.78 107.4 83.27 107.84 84.38 108.71C85.48 109.58 86.03 110.82 86.03 112.43V112.59C86.03 113.57 85.65 114.32 84.89 114.85C84.13 115.38 82.91 115.79 81.25 116.07C79.59 116.35 77.39 116.62 74.66 116.86C72.22 117.07 69.93 117.47 67.79 118.06C65.64 118.65 63.75 119.52 62.1 120.67C60.46 121.82 59.17 123.3 58.23 125.14C57.29 126.98 56.82 129.22 56.82 131.89C56.82 135.06 57.5 137.68 58.87 139.78C60.24 141.88 62.1 143.43 64.46 144.47C66.82 145.51 69.54 146.02 72.6 146.02C74.83 146.02 76.83 145.74 78.61 145.18C80.39 144.62 81.94 143.78 83.26 142.65C84.58 141.53 85.67 140.15 86.52 138.53H86.9V145.22H101.27L101.26 145.19ZM86.12 128.14C86.12 129.7 85.72 131.07 84.93 132.25C84.14 133.42 83.08 134.35 81.76 135.01C80.44 135.67 78.95 136.01 77.31 136.01C75.56 136.01 74.12 135.59 72.99 134.76C71.86 133.93 71.29 132.72 71.29 131.14C71.29 130.1 71.55 129.2 72.09 128.44C72.62 127.68 73.39 127.06 74.4 126.58C75.41 126.1 76.63 125.75 78.07 125.52C78.78 125.42 79.52 125.3 80.29 125.18C81.06 125.05 81.81 124.91 82.54 124.74C83.27 124.57 83.94 124.4 84.56 124.21C85.17 124.02 85.7 123.82 86.14 123.59V128.15L86.12 128.14Z" fill="#121826"/>
<path d="M133.27 97.89C131.47 98.75 129.99 99.86 128.84 101.22C127.69 102.58 126.79 103.98 126.17 105.44H125.86V81.23H110.59V145.2H125.71V137.42H126.18C126.82 138.9 127.74 140.28 128.94 141.58C130.14 142.87 131.62 143.91 133.39 144.7C135.16 145.49 137.25 145.89 139.67 145.89C143.21 145.89 146.43 144.97 149.34 143.14C152.25 141.31 154.55 138.56 156.27 134.89C157.99 131.22 158.85 126.68 158.85 121.24C158.85 115.8 157.96 110.95 156.17 107.31C154.38 103.67 152.03 100.97 149.13 99.22C146.22 97.47 143.11 96.6001 139.77 96.6001C137.25 96.6001 135.09 97.03 133.29 97.9L133.27 97.89ZM143.15 121.2C143.15 123.78 142.81 126.03 142.14 127.95C141.46 129.86 140.47 131.35 139.16 132.4C137.85 133.45 136.26 133.98 134.38 133.98C132.5 133.98 130.94 133.45 129.62 132.4C128.3 131.35 127.29 129.87 126.59 127.95C125.89 126.03 125.54 123.78 125.54 121.2C125.54 118.62 125.89 116.32 126.59 114.42C127.29 112.52 128.29 111.07 129.61 110.05C130.92 109.03 132.51 108.52 134.39 108.52C136.27 108.52 137.88 109.04 139.19 110.08C140.49 111.12 141.48 112.59 142.16 114.48C142.84 116.38 143.17 118.61 143.17 121.19L143.15 121.2Z" fill="#121826"/>
<path d="M174.51 77.03C172.37 77.03 170.52 77.74 168.98 79.17C167.44 80.6 166.67 82.31 166.67 84.31C166.67 86.31 167.44 88.05 168.98 89.48C170.52 90.91 172.37 91.62 174.51 91.62C176.65 91.62 178.52 90.91 180.05 89.48C181.58 88.05 182.34 86.33 182.34 84.31C182.34 82.29 181.58 80.6 180.05 79.17C178.52 77.74 176.67 77.03 174.51 77.03Z" fill="#121826"/>
<path d="M182.13 97.21H166.86V145.19H182.13V97.21Z" fill="#121826"/>
<path d="M194.97 131.79C194.93 135.04 195.58 137.73 196.92 139.88C198.26 142.03 200.21 143.6 202.76 144.62C205.31 145.63 208.38 146.05 211.96 145.88C213.79 145.8 215.37 145.6 216.69 145.29C218.01 144.98 219.04 144.72 219.77 144.51L217.46 133.48C217.13 133.57 216.63 133.66 215.97 133.78C215.32 133.89 214.7 133.95 214.11 133.95C213.3 133.95 212.6 133.83 212.02 133.59C211.44 133.35 211 132.95 210.69 132.37C210.39 131.8 210.24 131.05 210.24 130.11V108.46H218.89V97.21H210.24V85.71H194.96V97.21H188.62V108.46H194.96V131.79H194.97Z" fill="#121826"/>
<path d="M251.82 134.42C250.59 135.15 249 135.52 247.04 135.52C244.87 135.52 243.1 135.06 241.7 134.15C240.3 133.24 239.44 131.9 239.11 130.15L224.02 130.53C224.58 135.28 226.84 139.06 230.78 141.89C234.72 144.71 240.13 146.12 246.98 146.12C251.27 146.12 255.08 145.45 258.41 144.1C261.74 142.75 264.37 140.87 266.3 138.43C268.23 135.99 269.2 133.13 269.22 129.84C269.2 126.34 268.02 123.53 265.67 121.41C263.33 119.28 259.76 117.77 254.97 116.85L245.73 115.1C243.71 114.68 242.31 114.13 241.53 113.44C240.75 112.75 240.37 111.94 240.39 111.01C240.37 109.8 240.98 108.84 242.22 108.14C243.46 107.44 244.96 107.08 246.73 107.08C248.08 107.08 249.27 107.31 250.31 107.75C251.35 108.19 252.18 108.81 252.83 109.59C253.47 110.37 253.87 111.26 254.01 112.26L268.04 111.88C267.64 107.13 265.57 103.4 261.82 100.68C258.07 97.96 252.95 96.6 246.45 96.6C242.12 96.6 238.36 97.2 235.18 98.41C231.99 99.62 229.54 101.36 227.81 103.64C226.08 105.92 225.23 108.67 225.25 111.87C225.23 115.54 226.4 118.55 228.75 120.91C231.1 123.27 234.68 124.89 239.49 125.77L247.86 127.36C249.86 127.73 251.33 128.25 252.27 128.91C253.21 129.56 253.68 130.43 253.71 131.52C253.69 132.73 253.07 133.7 251.84 134.43L251.82 134.42Z" fill="#121826"/>
<path d="M21.11 183.06C22.44 182.07 23.99 181.58 25.77 181.58C27.95 181.58 29.73 182.28 31.1 183.67C32.46 185.07 33.29 186.99 33.58 189.45H47.86C47.76 185.52 46.77 182.08 44.91 179.16C43.05 176.23 40.46 173.97 37.16 172.36C33.86 170.76 29.99 169.95 25.55 169.95C20.53 169.95 16.22 170.99 12.6 173.07C8.99 175.15 6.21 178.05 4.26 181.77C2.31 185.49 1.34 189.8 1.34 194.72C1.34 199.64 2.31 203.92 4.24 207.64C6.18 211.36 8.95 214.26 12.57 216.34C16.18 218.42 20.52 219.46 25.58 219.46C30.08 219.46 33.97 218.64 37.25 217.01C40.53 215.37 43.08 213.08 44.9 210.12C46.72 207.16 47.71 203.71 47.85 199.75H33.57C33.38 201.44 32.94 202.87 32.23 204.04C31.52 205.22 30.62 206.11 29.53 206.71C28.44 207.31 27.18 207.62 25.77 207.62C24 207.62 22.44 207.13 21.11 206.14C19.78 205.15 18.74 203.68 18 201.73C17.26 199.78 16.89 197.4 16.89 194.56C16.89 191.72 17.26 189.35 18 187.42C18.74 185.49 19.78 184.04 21.11 183.05V183.06Z" fill="#121826"/>
<path d="M91.06 173.07C87.45 171 83.12 169.96 78.08 169.96C73.04 169.96 68.71 171 65.1 173.07C61.49 175.14 58.71 178.03 56.76 181.75C54.81 185.47 53.84 189.79 53.84 194.73C53.84 199.67 54.81 203.96 56.76 207.68C58.71 211.4 61.48 214.29 65.1 216.36C68.71 218.43 73.04 219.47 78.08 219.47C83.12 219.47 87.45 218.44 91.06 216.36C94.67 214.29 97.45 211.39 99.4 207.68C101.34 203.96 102.32 199.64 102.32 194.73C102.32 189.82 101.34 185.47 99.4 181.75C97.45 178.03 94.67 175.14 91.06 173.07ZM85.76 201.57C85.08 203.57 84.11 205.13 82.84 206.26C81.57 207.39 80.02 207.95 78.18 207.95C76.34 207.95 74.69 207.39 73.39 206.26C72.09 205.14 71.1 203.58 70.42 201.57C69.74 199.57 69.4 197.26 69.4 194.64C69.4 192.02 69.74 189.64 70.42 187.64C71.1 185.64 72.08 184.08 73.39 182.95C74.69 181.83 76.29 181.26 78.18 181.26C80.07 181.26 81.57 181.82 82.84 182.95C84.11 184.08 85.08 185.63 85.76 187.64C86.44 189.65 86.77 191.97 86.77 194.64C86.77 197.31 86.43 199.58 85.76 201.57Z" fill="#121826"/>
<path d="M166.83 169.96C163.29 169.96 160.22 170.82 157.61 172.54C155.01 174.26 153.26 176.55 152.36 179.4H151.86C151.21 176.53 149.7 174.24 147.33 172.53C144.96 170.82 142.1 169.97 138.77 169.97C135.44 169.97 132.65 170.81 130.27 172.5C127.9 174.19 126.21 176.49 125.21 179.4H124.68V170.59H110.16V218.57H125.43V190.18C125.43 188.6 125.72 187.22 126.29 186.06C126.86 184.9 127.66 183.99 128.68 183.36C129.7 182.73 130.88 182.41 132.21 182.41C134.19 182.41 135.78 183.05 136.99 184.35C138.2 185.64 138.8 187.4 138.8 189.63V218.59H153.48V189.95C153.48 187.66 154.08 185.83 155.28 184.47C156.48 183.11 158.13 182.43 160.23 182.43C162.18 182.43 163.78 183.06 165.01 184.32C166.24 185.58 166.85 187.41 166.85 189.8V218.6H182.12V186.3C182.12 181.24 180.71 177.26 177.87 174.35C175.04 171.44 171.35 169.99 166.81 169.99L166.83 169.96Z" fill="#121826"/>
<path d="M230.16 172.58C227.25 170.83 224.14 169.96 220.8 169.96C218.28 169.96 216.12 170.39 214.32 171.26C212.52 172.12 211.04 173.23 209.89 174.59C208.74 175.95 207.84 177.35 207.22 178.81H206.75V170.6H191.63V236.57H206.9V210.8H207.21C207.85 212.28 208.77 213.66 209.97 214.96C211.17 216.25 212.65 217.29 214.42 218.08C216.19 218.87 218.28 219.27 220.7 219.27C224.24 219.27 227.46 218.35 230.37 216.52C233.28 214.69 235.58 211.94 237.3 208.27C239.02 204.6 239.88 200.06 239.88 194.62C239.88 189.18 238.99 184.33 237.2 180.69C235.41 177.05 233.06 174.35 230.16 172.6V172.58ZM223.19 201.32C222.51 203.23 221.52 204.72 220.21 205.77C218.9 206.82 217.31 207.35 215.43 207.35C213.55 207.35 211.99 206.82 210.67 205.77C209.35 204.72 208.34 203.24 207.64 201.32C206.94 199.4 206.59 197.15 206.59 194.57C206.59 191.99 206.94 189.69 207.64 187.79C208.34 185.89 209.34 184.44 210.66 183.42C211.97 182.4 213.56 181.89 215.44 181.89C217.32 181.89 218.93 182.41 220.24 183.45C221.54 184.49 222.53 185.96 223.21 187.85C223.89 189.75 224.22 191.98 224.22 194.56C224.22 197.14 223.88 199.39 223.21 201.31L223.19 201.32Z" fill="#121826"/>
<path d="M284.09 174.16C282.18 172.8 279.92 171.75 277.34 171.04C274.76 170.32 271.94 169.96 268.88 169.96C264.59 169.96 260.92 170.62 257.87 171.95C254.82 173.27 252.43 175.08 250.69 177.38C248.95 179.68 247.87 182.29 247.46 185.2L261.55 185.7C261.88 184.16 262.66 182.95 263.89 182.08C265.12 181.2 266.74 180.77 268.76 180.77C270.63 180.77 272.12 181.21 273.23 182.08C274.33 182.95 274.88 184.19 274.88 185.8V185.96C274.88 186.94 274.5 187.69 273.74 188.22C272.98 188.75 271.76 189.16 270.1 189.44C268.44 189.72 266.24 189.99 263.51 190.23C261.07 190.44 258.78 190.84 256.64 191.43C254.49 192.02 252.6 192.89 250.95 194.04C249.31 195.19 248.02 196.67 247.08 198.51C246.14 200.35 245.67 202.59 245.67 205.26C245.67 208.43 246.35 211.05 247.72 213.15C249.09 215.25 250.95 216.8 253.31 217.84C255.67 218.88 258.39 219.39 261.45 219.39C263.68 219.39 265.68 219.11 267.46 218.55C269.24 217.99 270.79 217.15 272.11 216.02C273.43 214.9 274.52 213.52 275.37 211.9H275.75V218.59H290.12V185.98C290.12 183.44 289.59 181.18 288.55 179.2C287.5 177.22 286.01 175.55 284.1 174.19L284.09 174.16ZM274.97 201.51C274.97 203.07 274.57 204.44 273.78 205.62C272.99 206.79 271.93 207.72 270.61 208.38C269.29 209.04 267.8 209.38 266.16 209.38C264.41 209.38 262.97 208.96 261.84 208.13C260.71 207.3 260.14 206.09 260.14 204.51C260.14 203.47 260.4 202.57 260.94 201.81C261.47 201.05 262.24 200.43 263.25 199.95C264.26 199.47 265.48 199.12 266.92 198.89C267.63 198.79 268.37 198.67 269.14 198.55C269.91 198.42 270.66 198.28 271.39 198.11C272.12 197.94 272.79 197.77 273.41 197.58C274.02 197.39 274.55 197.19 274.99 196.96V201.52L274.97 201.51Z" fill="#121826"/>
<path d="M337.86 172.22C335.37 170.71 332.44 169.95 329.07 169.95C325.53 169.95 322.48 170.79 319.92 172.47C317.36 174.15 315.55 176.45 314.48 179.39H313.95V170.58H299.43V218.56H314.7V191.2C314.72 189.37 315.06 187.81 315.72 186.51C316.38 185.21 317.31 184.22 318.53 183.53C319.75 182.84 321.16 182.48 322.76 182.48C325.18 182.48 327.07 183.23 328.43 184.73C329.79 186.23 330.47 188.31 330.45 190.98V218.56H345.73V187.98C345.75 184.38 345.07 181.23 343.68 178.53C342.29 175.83 340.36 173.73 337.87 172.22H337.86Z" fill="#121826"/>
<path d="M383.92 170.58L374.95 204.81H374.45L365.61 170.58H349.61L366.66 220.31L366.07 221.75C365.59 222.94 364.91 223.77 364.02 224.23C363.14 224.7 362.08 224.89 360.86 224.81C359.64 224.73 358.28 224.44 356.79 223.94L353.41 235.03C354.58 235.49 355.97 235.86 357.59 236.14C359.21 236.42 360.94 236.56 362.78 236.56C366.45 236.56 369.53 235.99 372.04 234.84C374.55 233.69 376.6 232.12 378.19 230.11C379.78 228.1 381.02 225.78 381.89 223.16L399.98 170.59H383.9L383.92 170.58Z" fill="#121826"/>
</svg>
