<svg width="480" height="307" viewBox="0 0 480 307" fill="none" xmlns="http://www.w3.org/2000/svg">
<rect x="5" y="5" width="469.99" height="296.58" rx="11" stroke="#121826" stroke-width="10"/>
<path d="M46.35 90.58C46.31 93.83 46.96 96.52 48.3 98.67C49.64 100.82 51.59 102.39 54.14 103.41C56.69 104.42 59.76 104.84 63.34 104.67C65.17 104.59 66.75 104.39 68.07 104.08C69.39 103.77 70.42 103.51 71.15 103.3L68.84 92.27C68.51 92.36 68.01 92.45 67.35 92.57C66.7 92.68 66.08 92.74 65.49 92.74C64.68 92.74 63.98 92.62 63.4 92.38C62.82 92.14 62.38 91.74 62.07 91.16C61.77 90.59 61.62 89.84 61.62 88.9V67.25H70.27V56H61.62V44.5H46.34V56H40V67.25H46.34V90.58H46.35Z" fill="#121826"/>
<path d="M94.36 76.62C94.38 74.79 94.73 73.23 95.41 71.93C96.09 70.63 97.03 69.64 98.25 68.95C99.47 68.26 100.88 67.9 102.48 67.9C104.94 67.9 106.84 68.65 108.2 70.15C109.55 71.65 110.22 73.73 110.2 76.4V103.98H125.48V73.4C125.5 69.78 124.82 66.61 123.43 63.9C122.04 61.19 120.1 59.09 117.6 57.6C115.1 56.11 112.17 55.37 108.79 55.37C105.21 55.37 102.19 56.2 99.72 57.87C97.25 59.53 95.48 61.85 94.39 64.8H93.86V40H79.09V103.97H94.36V76.61V76.62Z" fill="#121826"/>
<path d="M168.45 102.96C171.64 101.68 174.22 99.8799 176.18 97.5599C178.15 95.2399 179.42 92.4999 180.01 89.3599L165.99 88.9499C165.59 90.0099 165 90.9099 164.21 91.6399C163.42 92.3699 162.47 92.9199 161.37 93.2899C160.27 93.6699 159.04 93.8499 157.68 93.8499C155.72 93.8499 154.04 93.4499 152.62 92.6299C151.2 91.8199 150.11 90.6799 149.34 89.2099C148.57 87.7399 148.18 86.0299 148.18 84.0699V83.6599H180.17V79.8499C180.17 75.9099 179.6 72.4199 178.45 69.3699C177.3 66.3199 175.7 63.7499 173.64 61.6699C171.58 59.5899 169.13 58.0199 166.3 56.9499C163.47 55.8899 160.34 55.3599 156.93 55.3599C152.1 55.3599 147.9 56.3999 144.34 58.4699C140.78 60.5399 138.02 63.4299 136.06 67.1499C134.1 70.8699 133.13 75.1999 133.13 80.1599C133.13 85.1199 134.1 89.6599 136.05 93.3599C138 97.0599 140.79 99.8999 144.42 101.89C148.05 103.88 152.38 104.87 157.4 104.87C161.58 104.87 165.27 104.23 168.46 102.95L168.45 102.96ZM152.64 67.5399C153.99 66.7799 155.52 66.3999 157.23 66.3999C158.94 66.3999 160.41 66.7599 161.71 67.4799C163.01 68.1999 164.04 69.1899 164.78 70.4599C165.53 71.7299 165.91 73.1799 165.94 74.7999H148.2C148.28 73.2599 148.66 71.8599 149.41 70.6299C150.2 69.3299 151.27 68.2999 152.63 67.5399H152.64Z" fill="#121826"/>
<path d="M81.7099 138.829C79.2099 137.339 76.28 136.599 72.9 136.599C69.32 136.599 66.3 137.429 63.83 139.099C61.36 140.759 59.59 143.079 58.5 146.029H57.97V121.229H43.2V185.199H58.47V157.839C58.49 156.009 58.84 154.449 59.52 153.149C60.2 151.849 61.14 150.859 62.36 150.169C63.58 149.479 64.99 149.119 66.59 149.119C69.05 149.119 70.95 149.869 72.31 151.369C73.66 152.869 74.33 154.949 74.31 157.619V185.199H89.59V154.619C89.61 150.999 88.93 147.829 87.54 145.119C86.15 142.409 84.2099 140.309 81.7099 138.819V138.829Z" fill="#121826"/>
<path d="M141.27 185.2V152.59C141.27 150.05 140.74 147.79 139.7 145.81C138.65 143.83 137.16 142.16 135.25 140.8C133.34 139.44 131.08 138.39 128.5 137.68C125.92 136.96 123.1 136.6 120.04 136.6C115.75 136.6 112.08 137.26 109.03 138.59C105.98 139.91 103.59 141.72 101.85 144.02C100.11 146.32 99.03 148.93 98.62 151.84L112.71 152.34C113.04 150.8 113.82 149.59 115.05 148.72C116.28 147.84 117.9 147.41 119.92 147.41C121.79 147.41 123.28 147.85 124.39 148.72C125.49 149.59 126.04 150.83 126.04 152.44V152.6C126.04 153.58 125.66 154.33 124.9 154.86C124.14 155.39 122.92 155.8 121.26 156.08C119.6 156.36 117.4 156.63 114.67 156.87C112.23 157.08 109.94 157.48 107.8 158.07C105.65 158.66 103.76 159.53 102.11 160.68C100.47 161.83 99.18 163.31 98.24 165.15C97.3 166.99 96.83 169.23 96.83 171.9C96.83 175.07 97.51 177.69 98.88 179.79C100.25 181.89 102.11 183.44 104.47 184.48C106.83 185.52 109.55 186.03 112.61 186.03C114.84 186.03 116.84 185.75 118.62 185.19C120.4 184.63 121.95 183.79 123.27 182.66C124.59 181.54 125.68 180.16 126.53 178.54H126.91V185.23H141.28L141.27 185.2ZM126.13 168.15C126.13 169.71 125.73 171.08 124.94 172.26C124.15 173.43 123.09 174.36 121.77 175.02C120.45 175.68 118.96 176.02 117.32 176.02C115.57 176.02 114.13 175.6 113 174.77C111.87 173.94 111.3 172.73 111.3 171.15C111.3 170.11 111.56 169.21 112.1 168.45C112.63 167.69 113.4 167.07 114.41 166.59C115.42 166.11 116.64 165.76 118.08 165.53C118.79 165.43 119.53 165.31 120.3 165.19C121.07 165.06 121.82 164.92 122.55 164.75C123.28 164.58 123.95 164.41 124.57 164.22C125.18 164.03 125.71 163.83 126.15 163.6V168.16L126.13 168.15Z" fill="#121826"/>
<path d="M173.28 137.9C171.48 138.76 170 139.87 168.85 141.23C167.7 142.59 166.8 143.99 166.18 145.45H165.87V121.24H150.6V185.21H165.72V177.43H166.19C166.83 178.91 167.75 180.29 168.95 181.59C170.15 182.88 171.63 183.92 173.4 184.71C175.17 185.5 177.26 185.9 179.68 185.9C183.22 185.9 186.44 184.98 189.35 183.15C192.26 181.32 194.56 178.57 196.28 174.9C198 171.23 198.86 166.69 198.86 161.25C198.86 155.81 197.97 150.96 196.18 147.32C194.39 143.68 192.04 140.98 189.14 139.23C186.23 137.48 183.12 136.61 179.78 136.61C177.26 136.61 175.1 137.04 173.3 137.91L173.28 137.9ZM183.16 161.21C183.16 163.79 182.82 166.04 182.15 167.96C181.47 169.87 180.48 171.36 179.17 172.41C177.86 173.46 176.27 173.99 174.39 173.99C172.51 173.99 170.95 173.46 169.63 172.41C168.31 171.36 167.3 169.88 166.6 167.96C165.9 166.04 165.55 163.79 165.55 161.21C165.55 158.63 165.9 156.33 166.6 154.43C167.3 152.53 168.3 151.08 169.62 150.06C170.93 149.04 172.52 148.53 174.4 148.53C176.28 148.53 177.89 149.05 179.2 150.09C180.5 151.13 181.49 152.6 182.17 154.49C182.85 156.39 183.18 158.62 183.18 161.2L183.16 161.21Z" fill="#121826"/>
<path d="M214.52 117.04C212.38 117.04 210.53 117.75 208.99 119.18C207.45 120.61 206.68 122.32 206.68 124.32C206.68 126.32 207.45 128.06 208.99 129.49C210.53 130.92 212.38 131.63 214.52 131.63C216.66 131.63 218.53 130.92 220.06 129.49C221.59 128.06 222.35 126.34 222.35 124.32C222.35 122.3 221.59 120.61 220.06 119.18C218.53 117.75 216.68 117.04 214.52 117.04Z" fill="#121826"/>
<path d="M222.14 137.22H206.87V185.2H222.14V137.22Z" fill="#121826"/>
<path d="M234.98 171.8C234.94 175.05 235.59 177.74 236.93 179.89C238.27 182.04 240.22 183.61 242.77 184.63C245.32 185.64 248.39 186.06 251.97 185.89C253.8 185.81 255.38 185.61 256.7 185.3C258.02 184.99 259.05 184.73 259.78 184.52L257.47 173.49C257.14 173.58 256.64 173.67 255.98 173.79C255.33 173.9 254.71 173.96 254.12 173.96C253.31 173.96 252.61 173.84 252.03 173.6C251.45 173.36 251.01 172.96 250.7 172.38C250.4 171.81 250.25 171.06 250.25 170.12V148.47H258.9V137.22H250.25V125.72H234.97V137.22H228.63V148.47H234.97V171.8H234.98Z" fill="#121826"/>
<path d="M291.83 174.429C290.6 175.159 289.01 175.529 287.05 175.529C284.88 175.529 283.11 175.069 281.71 174.159C280.31 173.249 279.45 171.909 279.12 170.159L264.03 170.539C264.59 175.289 266.85 179.069 270.79 181.899C274.73 184.719 280.14 186.129 286.99 186.129C291.28 186.129 295.09 185.459 298.42 184.109C301.75 182.759 304.38 180.879 306.31 178.439C308.24 175.999 309.21 173.139 309.23 169.849C309.21 166.349 308.03 163.539 305.68 161.419C303.34 159.289 299.77 157.779 294.98 156.859L285.74 155.109C283.72 154.689 282.32 154.139 281.54 153.449C280.76 152.759 280.38 151.949 280.4 151.019C280.38 149.809 280.99 148.849 282.23 148.149C283.47 147.449 284.97 147.089 286.74 147.089C288.09 147.089 289.28 147.319 290.32 147.759C291.36 148.199 292.19 148.819 292.84 149.599C293.48 150.379 293.88 151.269 294.02 152.269L308.05 151.889C307.65 147.139 305.58 143.409 301.83 140.689C298.08 137.969 292.96 136.609 286.46 136.609C282.13 136.609 278.37 137.209 275.19 138.419C272 139.629 269.55 141.369 267.82 143.649C266.09 145.929 265.24 148.679 265.26 151.879C265.24 155.549 266.41 158.559 268.76 160.919C271.11 163.279 274.69 164.899 279.5 165.779L287.87 167.369C289.87 167.739 291.34 168.259 292.28 168.919C293.22 169.569 293.69 170.439 293.72 171.529C293.7 172.739 293.08 173.709 291.85 174.439L291.83 174.429Z" fill="#121826"/>
<path d="M61.12 223.07C62.45 222.08 64 221.59 65.78 221.59C67.96 221.59 69.74 222.29 71.11 223.68C72.47 225.08 73.3 227 73.59 229.46H87.87C87.77 225.53 86.78 222.09 84.92 219.17C83.06 216.24 80.47 213.98 77.17 212.37C73.87 210.77 70 209.96 65.56 209.96C60.54 209.96 56.23 211 52.61 213.08C49 215.16 46.22 218.06 44.27 221.78C42.32 225.5 41.35 229.81 41.35 234.73C41.35 239.65 42.32 243.93 44.25 247.65C46.19 251.37 48.96 254.27 52.58 256.35C56.19 258.43 60.53 259.47 65.59 259.47C70.09 259.47 73.98 258.65 77.26 257.02C80.54 255.38 83.09 253.09 84.91 250.13C86.73 247.17 87.72 243.72 87.86 239.76H73.58C73.39 241.45 72.95 242.88 72.24 244.05C71.53 245.23 70.63 246.12 69.54 246.72C68.45 247.32 67.19 247.63 65.78 247.63C64.01 247.63 62.45 247.14 61.12 246.15C59.79 245.16 58.75 243.69 58.01 241.74C57.27 239.79 56.9 237.41 56.9 234.57C56.9 231.73 57.27 229.36 58.01 227.43C58.75 225.5 59.79 224.05 61.12 223.06V223.07Z" fill="#121826"/>
<path d="M131.07 213.08C127.46 211.01 123.13 209.97 118.09 209.97C113.05 209.97 108.72 211.01 105.11 213.08C101.5 215.15 98.72 218.04 96.77 221.76C94.82 225.48 93.85 229.8 93.85 234.74C93.85 239.68 94.82 243.97 96.77 247.69C98.72 251.41 101.49 254.3 105.11 256.37C108.72 258.44 113.05 259.48 118.09 259.48C123.13 259.48 127.46 258.45 131.07 256.37C134.68 254.3 137.46 251.4 139.41 247.69C141.35 243.97 142.33 239.65 142.33 234.74C142.33 229.83 141.35 225.48 139.41 221.76C137.46 218.04 134.68 215.15 131.07 213.08ZM125.77 241.58C125.09 243.58 124.12 245.14 122.85 246.27C121.58 247.4 120.03 247.96 118.19 247.96C116.35 247.96 114.7 247.4 113.4 246.27C112.1 245.15 111.11 243.59 110.43 241.58C109.75 239.58 109.41 237.27 109.41 234.65C109.41 232.03 109.75 229.65 110.43 227.65C111.11 225.65 112.09 224.09 113.4 222.96C114.7 221.84 116.3 221.27 118.19 221.27C120.08 221.27 121.58 221.83 122.85 222.96C124.12 224.09 125.09 225.64 125.77 227.65C126.45 229.66 126.78 231.98 126.78 234.65C126.78 237.32 126.44 239.59 125.77 241.58Z" fill="#121826"/>
<path d="M206.84 209.97C203.3 209.97 200.23 210.83 197.62 212.55C195.02 214.27 193.27 216.56 192.37 219.41H191.87C191.22 216.54 189.71 214.25 187.34 212.54C184.97 210.83 182.11 209.98 178.78 209.98C175.45 209.98 172.66 210.82 170.28 212.51C167.91 214.2 166.22 216.5 165.22 219.41H164.69V210.6H150.17V258.58H165.44V230.19C165.44 228.61 165.73 227.23 166.3 226.07C166.87 224.91 167.67 224 168.69 223.37C169.71 222.74 170.89 222.42 172.22 222.42C174.2 222.42 175.79 223.06 177 224.36C178.21 225.65 178.81 227.41 178.81 229.64V258.6H193.49V229.96C193.49 227.67 194.09 225.84 195.29 224.48C196.49 223.12 198.14 222.44 200.24 222.44C202.19 222.44 203.79 223.07 205.02 224.33C206.25 225.59 206.86 227.42 206.86 229.81V258.61H222.13V226.31C222.13 221.25 220.72 217.27 217.88 214.36C215.05 211.45 211.36 210 206.82 210L206.84 209.97Z" fill="#121826"/>
<path d="M270.17 212.59C267.26 210.84 264.15 209.97 260.81 209.97C258.29 209.97 256.13 210.4 254.33 211.27C252.53 212.13 251.05 213.24 249.9 214.6C248.75 215.96 247.85 217.36 247.23 218.82H246.76V210.61H231.64V276.58H246.91V250.81H247.22C247.86 252.29 248.78 253.67 249.98 254.97C251.18 256.26 252.66 257.3 254.43 258.09C256.2 258.88 258.29 259.28 260.71 259.28C264.25 259.28 267.47 258.36 270.38 256.53C273.29 254.7 275.59 251.95 277.31 248.28C279.03 244.61 279.89 240.07 279.89 234.63C279.89 229.19 279 224.34 277.21 220.7C275.42 217.06 273.07 214.36 270.17 212.61V212.59ZM263.2 241.33C262.52 243.24 261.53 244.73 260.22 245.78C258.91 246.83 257.32 247.36 255.44 247.36C253.56 247.36 252 246.83 250.68 245.78C249.36 244.73 248.35 243.25 247.65 241.33C246.95 239.41 246.6 237.16 246.6 234.58C246.6 232 246.95 229.7 247.65 227.8C248.35 225.9 249.35 224.45 250.67 223.43C251.98 222.41 253.57 221.9 255.45 221.9C257.33 221.9 258.94 222.42 260.25 223.46C261.55 224.5 262.54 225.97 263.22 227.86C263.9 229.76 264.23 231.99 264.23 234.57C264.23 237.15 263.89 239.4 263.22 241.32L263.2 241.33Z" fill="#121826"/>
<path d="M324.1 214.17C322.19 212.81 319.93 211.76 317.35 211.05C314.77 210.33 311.95 209.97 308.89 209.97C304.6 209.97 300.93 210.63 297.88 211.96C294.83 213.28 292.44 215.09 290.7 217.39C288.96 219.69 287.88 222.3 287.47 225.21L301.56 225.71C301.89 224.17 302.67 222.96 303.9 222.09C305.13 221.21 306.75 220.78 308.77 220.78C310.64 220.78 312.13 221.22 313.24 222.09C314.34 222.96 314.89 224.2 314.89 225.81V225.97C314.89 226.95 314.51 227.7 313.75 228.23C312.99 228.76 311.77 229.17 310.11 229.45C308.45 229.73 306.25 230 303.52 230.24C301.08 230.45 298.79 230.85 296.65 231.44C294.5 232.03 292.61 232.9 290.96 234.05C289.32 235.2 288.03 236.68 287.09 238.52C286.15 240.36 285.68 242.6 285.68 245.27C285.68 248.44 286.36 251.06 287.73 253.16C289.1 255.26 290.96 256.81 293.32 257.85C295.68 258.89 298.4 259.4 301.46 259.4C303.69 259.4 305.69 259.12 307.47 258.56C309.25 258 310.8 257.16 312.12 256.03C313.44 254.91 314.53 253.53 315.38 251.91H315.76V258.6H330.13V225.99C330.13 223.45 329.6 221.19 328.56 219.21C327.51 217.23 326.02 215.56 324.11 214.2L324.1 214.17ZM314.98 241.52C314.98 243.08 314.58 244.45 313.79 245.63C313 246.8 311.94 247.73 310.62 248.39C309.3 249.05 307.81 249.39 306.17 249.39C304.42 249.39 302.98 248.97 301.85 248.14C300.72 247.31 300.15 246.1 300.15 244.52C300.15 243.48 300.41 242.58 300.95 241.82C301.48 241.06 302.25 240.44 303.26 239.96C304.27 239.48 305.49 239.13 306.93 238.9C307.64 238.8 308.38 238.68 309.15 238.56C309.92 238.43 310.67 238.29 311.4 238.12C312.13 237.95 312.8 237.78 313.42 237.59C314.03 237.4 314.56 237.2 315 236.97V241.53L314.98 241.52Z" fill="#121826"/>
<path d="M377.87 212.23C375.38 210.72 372.45 209.96 369.08 209.96C365.54 209.96 362.49 210.8 359.93 212.48C357.37 214.16 355.56 216.46 354.49 219.4H353.96V210.59H339.44V258.57H354.71V231.21C354.73 229.38 355.07 227.82 355.73 226.52C356.39 225.22 357.32 224.23 358.54 223.54C359.76 222.85 361.17 222.49 362.77 222.49C365.19 222.49 367.08 223.24 368.44 224.74C369.8 226.24 370.48 228.32 370.46 230.99V258.57H385.74V227.99C385.76 224.39 385.08 221.24 383.69 218.54C382.3 215.84 380.37 213.74 377.88 212.23H377.87Z" fill="#121826"/>
<path d="M423.93 210.59L414.96 244.82H414.46L405.62 210.59H389.62L406.67 260.32L406.08 261.76C405.6 262.95 404.92 263.78 404.03 264.24C403.15 264.71 402.09 264.9 400.87 264.82C399.65 264.74 398.29 264.45 396.8 263.95L393.42 275.04C394.59 275.5 395.98 275.87 397.6 276.15C399.22 276.43 400.95 276.57 402.79 276.57C406.46 276.57 409.54 276 412.05 274.85C414.56 273.7 416.61 272.13 418.2 270.12C419.79 268.11 421.03 265.79 421.9 263.17L439.99 210.6H423.91L423.93 210.59Z" fill="#121826"/>
</svg>
